<svg xmlns="http://www.w3.org/2000/svg" xmlns:xlink="http://www.w3.org/1999/xlink">
  <defs>
    <path d="M10.4608286,15.2399998 L12.8818037,15.2399998 C17.0846022,15.2399998 20.5,11.8284096 20.5,7.61999989 C20.5,3.42015342 17.0892173,0 12.8818037,0 L8.11819631,0 C3.91539782,0 0.5,3.41159016 0.5,7.61999989 C0.5,10.9060559 2.58803194,13.714795 5.51194853,14.7814685 L5.51194853,17.0042208 C5.51194853,18.1064592 6.2241678,18.4588787 7.10034192,17.7931897 L10.4608286,15.2399998 Z"
    id="comms-inactive-path-1" />
    <path d="M10.4608286,15.2399998 L12.8818037,15.2399998 C17.0846022,15.2399998 20.5,11.8284096 20.5,7.61999989 C20.5,3.42015342 17.0892173,0 12.8818037,0 L8.11819631,0 C3.91539782,0 0.5,3.41159016 0.5,7.61999989 C0.5,10.9060559 2.58803194,13.714795 5.51194853,14.7814685 L5.51194853,17.0042208 C5.51194853,18.1064592 6.2241678,18.4588787 7.10034192,17.7931897 L10.4608286,15.2399998 Z"
    id="comms-path-1" />
    <path d="M18.3939126,2 L0.836086937,2 C0.374328872,2 5.65490536e-17,2.41327562 0,2.92307692 L0,15.8461538 C5.65490536e-17,16.3559552 0.374328872,16.7692308 0.836086937,16.7692308 L18.3939126,16.7692308 C18.8556707,16.7692308 19.2299995,16.3559552 19.2299995,15.8461538 L19.2299995,2.92307692 C19.2299995,2.41327562 18.8556707,2 18.3939126,2 Z"
    id="finance-inactive-path-1" />
    <path d="M18.3939126,2 L0.836086937,2 C0.374328872,2 5.65490536e-17,2.41327562 0,2.92307692 L0,15.8461538 C5.65490536e-17,16.3559552 0.374328872,16.7692308 0.836086937,16.7692308 L18.3939126,16.7692308 C18.8556707,16.7692308 19.2299995,16.3559552 19.2299995,15.8461538 L19.2299995,2.92307692 C19.2299995,2.41327562 18.8556707,2 18.3939126,2 Z"
    id="finance-path-1" />
    <path d="M1.16666667,7.83588397 C1.16666667,4.61281425 3.78489439,2 7,2 L7,2 C10.221661,2 12.8333333,4.61686973 12.8333333,7.83588397 L12.8333333,16 L1.16666667,16 L1.16666667,7.83588397 Z" id="notification-inactive-path-1" />
    <path d="M1.16666667,7.83588397 C1.16666667,4.61281425 3.78489439,2 7,2 L7,2 C10.221661,2 12.8333333,4.61686973 12.8333333,7.83588397 L12.8333333,16 L1.16666667,16 L1.16666667,7.83588397 Z" id="notification-path-1" />
    <path d="M1.04119658,15 C1.01397498,14.8358331 1,14.6690045 1,14.5 C1,12.0147186 4.02207794,10 7.75,10 C11.4779221,10 14.5,12.0147186 14.5,14.5 C14.5,14.6690045 14.486025,14.8358331 14.4588034,15 L1.04119658,15 Z M8.25,7 C6.59314575,7 5.25,5.65685425 5.25,4 C5.25,2.34314575 6.59314575,1 8.25,1 C9.90685425,1 11.25,2.34314575 11.25,4 C11.25,5.65685425 9.90685425,7 8.25,7 Z"
    id="owner-inactive-path-1" />
    <path d="M1.04119658,15 C1.01397498,14.8358331 1,14.6690045 1,14.5 C1,12.0147186 4.02207794,10 7.75,10 C11.4779221,10 14.5,12.0147186 14.5,14.5 C14.5,14.6690045 14.486025,14.8358331 14.4588034,15 L1.04119658,15 Z M8.25,7 C6.59314575,7 5.25,5.65685425 5.25,4 C5.25,2.34314575 6.59314575,1 8.25,1 C9.90685425,1 11.25,2.34314575 11.25,4 C11.25,5.65685425 9.90685425,7 8.25,7 Z"
    id="owner-path-1" />
    <path d="M3.93907563,15.9453782 C3.93907563,15.3710484 4.40636002,14.9054622 4.97465358,14.9054622 L10.0253464,14.9054622 C10.5972803,14.9054622 11.0609244,15.3670443 11.0609244,15.9453782 L11.0609244,16.9852941 L3.93907563,16.9852941 L3.93907563,15.9453782 Z"
    id="racing-inactive-path-1" />
    <path d="M5.89285714,13.3298319 C5.89285714,12.9643494 6.189488,12.6680672 6.55885922,12.6680672 L8.44114078,12.6680672 C8.80896357,12.6680672 9.10714286,12.9618013 9.10714286,13.3298319 L9.10714286,13.9915966 L5.89285714,13.9915966 L5.89285714,13.3298319 Z"
    id="racing-inactive-path-2" />
    <path d="M3.93907563,15.9453782 C3.93907563,15.3710484 4.40636002,14.9054622 4.97465358,14.9054622 L10.0253464,14.9054622 C10.5972803,14.9054622 11.0609244,15.3670443 11.0609244,15.9453782 L11.0609244,16.9852941 L3.93907563,16.9852941 L3.93907563,15.9453782 Z"
    id="racing-path-1" />
    <path d="M5.89285714,13.3298319 C5.89285714,12.9643494 6.189488,12.6680672 6.55885922,12.6680672 L8.44114078,12.6680672 C8.80896357,12.6680672 9.10714286,12.9618013 9.10714286,13.3298319 L9.10714286,13.9915966 L5.89285714,13.9915966 L5.89285714,13.3298319 Z"
    id="racing-path-2" />
    <path d="M12.0982987,0 L12.4037479,0 C12.9560385,0 13.4037585,0.451803658 13.4037585,1.00246365 L13.4037585,8.36482201 C13.4037585,8.9184674 12.9549687,9.36728567 12.4037479,9.36728567 L1.79396139,9.36728567 C1.24167082,9.36728567 0.793950851,8.91548201 0.793950851,8.36482201 L0.793950851,7.82608696 L9.09892192,7.82608696 C10.7638031,7.82608696 12.0982987,6.48213795 12.0982987,4.82429284 L12.0982987,-2.22044605e-16 Z"
    id="report-inactive-path-1" />
    <rect id="report-inactive-path-2" x="0.793950851" y="0" width="12.6098076" height="9.36728567" rx="0.600000024" />
    <path d="M12.0982987,0 L12.4037479,0 C12.9560385,0 13.4037585,0.451803658 13.4037585,1.00246365 L13.4037585,8.36482201 C13.4037585,8.9184674 12.9549687,9.36728567 12.4037479,9.36728567 L1.79396139,9.36728567 C1.24167082,9.36728567 0.793950851,8.91548201 0.793950851,8.36482201 L0.793950851,7.82608696 L9.09892192,7.82608696 C10.7638031,7.82608696 12.0982987,6.48213795 12.0982987,4.82429284 L12.0982987,-2.22044605e-16 Z"
    id="report-path-1" />
    <rect id="report-path-2" x="0.793950851" y="0" width="12.6098076" height="9.36728567" rx="0.600000024" />
    <rect id="schedule-inactive-path-1" x="0" y="2" width="17" height="16" rx="2" />
    <rect id="schedule-path-1" x="0" y="2" width="17" height="16" rx="2" />
    <path d="M9.25781009,8.25750934 C8.28246618,7.60121892 6.92960991,7.19470899 5.43433542,7.19470899 C2.46186,7.19470899 0.0521925641,8.80115395 0.0521925641,10.7828042 C0.0521925641,10.9175608 0.0633355802,11.0505822 0.0850408451,11.1814815 L5.37601145,11.1814815 C6.0385577,9.99244484 7.42297095,8.96946072 9.25781009,8.25750934 Z M5.59657087,4.3297619 C4.40605388,4.3297619 3.44094918,3.3646572 3.44094918,2.17414021 C3.44094918,0.983623224 4.40605388,0.0185185185 5.59657087,0.0185185185 C6.78708786,0.0185185185 7.75219256,0.983623224 7.75219256,2.17414021 C7.75219256,3.3646572 6.78708786,4.3297619 5.59657087,4.3297619 Z"
    id="staff-inactive-path-1" />
    <path d="M7.60312821,15.26075 C7.57746213,15.105964 7.56428571,14.9486686 7.56428571,14.7893214 C7.56428571,12.4460561 10.4136735,10.5464643 13.9285714,10.5464643 C17.4434694,10.5464643 20.2928571,12.4460561 20.2928571,14.7893214 C20.2928571,14.9486686 20.2796807,15.105964 20.2540146,15.26075 L7.60312821,15.26075 Z M14.4,7.71789286 C12.8378231,7.71789286 11.5714286,6.45149829 11.5714286,4.88932143 C11.5714286,3.32714456 12.8378231,2.06075 14.4,2.06075 C15.9621769,2.06075 17.2285714,3.32714456 17.2285714,4.88932143 C17.2285714,6.45149829 15.9621769,7.71789286 14.4,7.71789286 Z"
    id="staff-inactive-path-2" />
    <path d="M9.25781009,8.25750934 C8.28246618,7.60121892 6.92960991,7.19470899 5.43433542,7.19470899 C2.46186,7.19470899 0.0521925641,8.80115395 0.0521925641,10.7828042 C0.0521925641,10.9175608 0.0633355802,11.0505822 0.0850408451,11.1814815 L5.37601145,11.1814815 C6.0385577,9.99244484 7.42297095,8.96946072 9.25781009,8.25750934 Z M5.59657087,4.3297619 C4.40605388,4.3297619 3.44094918,3.3646572 3.44094918,2.17414021 C3.44094918,0.983623224 4.40605388,0.0185185185 5.59657087,0.0185185185 C6.78708786,0.0185185185 7.75219256,0.983623224 7.75219256,2.17414021 C7.75219256,3.3646572 6.78708786,4.3297619 5.59657087,4.3297619 Z"
    id="staff-path-1" />
    <path d="M7.60312821,15.26075 C7.57746213,15.105964 7.56428571,14.9486686 7.56428571,14.7893214 C7.56428571,12.4460561 10.4136735,10.5464643 13.9285714,10.5464643 C17.4434694,10.5464643 20.2928571,12.4460561 20.2928571,14.7893214 C20.2928571,14.9486686 20.2796807,15.105964 20.2540146,15.26075 L7.60312821,15.26075 Z M14.4,7.71789286 C12.8378231,7.71789286 11.5714286,6.45149829 11.5714286,4.88932143 C11.5714286,3.32714456 12.8378231,2.06075 14.4,2.06075 C15.9621769,2.06075 17.2285714,3.32714456 17.2285714,4.88932143 C17.2285714,6.45149829 15.9621769,7.71789286 14.4,7.71789286 Z"
    id="staff-path-2" />
    <path d="M9.9569818,3.8125 L11.3743546,3.8125 C11.6329937,3.8125 11.8426622,4.02993774 11.8426622,4.28125 C11.8426622,4.54013348 11.6329056,4.75 11.3743546,4.75 L10.3662527,4.75 C10.4743455,5.04323024 10.5331619,5.35877929 10.5331619,5.6875 C10.5331619,7.24080086 9.21988747,8.5 7.59988133,8.5 C5.97987519,8.5 4.66660074,7.24080086 4.66660074,5.6875 C4.66660074,5.35877929 4.72541714,5.04323024 4.83350998,4.75 L3.8254081,4.75 C3.56676894,4.75 3.35710047,4.53256226 3.35710047,4.28125 C3.35710047,4.02236652 3.5668571,3.8125 3.8254081,3.8125 L5.24278085,3.8125 L5.24278085,2.00493118 C5.24278085,1.44992302 5.69479826,1 6.24254163,1 L8.95722103,1 C9.50937366,1 9.9569818,1.44490024 9.9569818,2.00493118 L9.9569818,3.8125 Z M1.04028038,16 C1.01366418,15.8460935 1,15.6896918 1,15.53125 C1,13.2012987 3.95486752,11.3125 7.59988133,11.3125 C11.2448951,11.3125 14.1997627,13.2012987 14.1997627,15.53125 C14.1997627,15.6896918 14.1860985,15.8460935 14.1594823,16 L1.04028038,16 Z"
    id="trainer-inactive-path-1" />
    <path d="M9.9569818,3.8125 L11.3743546,3.8125 C11.6329937,3.8125 11.8426622,4.02993774 11.8426622,4.28125 C11.8426622,4.54013348 11.6329056,4.75 11.3743546,4.75 L10.3662527,4.75 C10.4743455,5.04323024 10.5331619,5.35877929 10.5331619,5.6875 C10.5331619,7.24080086 9.21988747,8.5 7.59988133,8.5 C5.97987519,8.5 4.66660074,7.24080086 4.66660074,5.6875 C4.66660074,5.35877929 4.72541714,5.04323024 4.83350998,4.75 L3.8254081,4.75 C3.56676894,4.75 3.35710047,4.53256226 3.35710047,4.28125 C3.35710047,4.02236652 3.5668571,3.8125 3.8254081,3.8125 L5.24278085,3.8125 L5.24278085,2.00493118 C5.24278085,1.44992302 5.69479826,1 6.24254163,1 L8.95722103,1 C9.50937366,1 9.9569818,1.44490024 9.9569818,2.00493118 L9.9569818,3.8125 Z M1.04028038,16 C1.01366418,15.8460935 1,15.6896918 1,15.53125 C1,13.2012987 3.95486752,11.3125 7.59988133,11.3125 C11.2448951,11.3125 14.1997627,13.2012987 14.1997627,15.53125 C14.1997627,15.6896918 14.1860985,15.8460935 14.1594823,16 L1.04028038,16 Z"
    id="trainer-path-1" /> </defs>
  <symbol viewBox="0 0 19 19" id="icon-cms-inactive">
    <title>CMS copy</title>
    <desc>Created with Sketch.</desc>
    <!-- Generator: Sketch 46.1 (44463) - http://www.bohemiancoding.com/sketch -->
    <g id="cms-inactive-Page-1" stroke="none" stroke-width="1" fill="none" fill-rule="evenodd">
      <path d="M10.737658,11.625 L10.737658,11.4359328 C10.737658,10.9292517 10.7419047,10.4225707 10.7347703,9.91604931 C10.7329017,9.78638496 10.7751988,9.70462615 10.8830647,9.61871553 C11.5093667,9.12001874 11.7606009,8.48926232 11.5542117,7.73283367 C11.2949937,6.78318597 10.2931144,6.20081415 9.17946218,6.33047851 C8.37327037,6.42421371 7.65659881,6.97848093 7.45309739,7.69642545 C7.22921184,8.4862283 7.49437522,9.13279356 8.14989443,9.65448501 C8.20764943,9.70063402 8.25487263,9.79149488 8.25623157,9.8623951 C8.26506469,10.3858431 8.26098787,10.9094508 8.26098787,11.4328987 L8.26098787,11.625 L10.737658,11.625 Z M5.82628201,15.1621838 C5.38112214,15.6117742 4.9340897,16.0632373 4.49148333,16.5102742 C3.82382865,15.8385272 3.16468562,15.1751217 2.50367003,14.5098436 C2.9386159,14.0757445 3.3885423,13.626835 3.8410222,13.1752018 C3.72407198,12.9654724 3.59520543,12.7817889 3.51383395,12.5790391 C3.31346945,12.07974 3.12791524,11.5739721 2.95257503,11.0651399 C2.91342139,10.951423 2.87375705,10.9139713 2.75782822,10.9151629 C2.24134064,10.9204402 1.72485305,10.9175462 1.20836546,10.9175462 L1,10.9175462 L1,8.08330496 L1.79243564,8.08330496 C2.12268808,8.08313473 2.45311076,8.08773107 2.78319297,8.07853838 C2.83596527,8.07700627 2.92295445,8.02270133 2.93350891,7.97827001 C3.11242402,7.23025776 3.41067262,6.53382668 3.81582768,5.88182692 C3.82195608,5.87212353 3.82280725,5.85901544 3.83370217,5.82088282 C3.39177673,5.38337906 2.940148,4.93634215 2.49907373,4.49985981 C3.16672842,3.8320282 3.82774401,3.17100599 4.49403683,2.50453626 C4.92285431,2.94186978 5.36733325,3.39520538 5.81742988,3.85432897 C5.94323223,3.77942561 6.0389033,3.72103503 6.13593623,3.66519797 C6.70077005,3.33936833 7.30033145,3.09899662 7.9349609,2.95106247 C8.05582648,2.9229737 8.08629823,2.8727544 8.0851066,2.75750536 C8.08016983,2.2410126 8.0830638,1.72451984 8.0830638,1.20802708 L8.0830638,1 L10.9172767,1 L10.9172767,1.82921432 C10.9172767,2.14755362 10.9135315,2.46589293 10.921192,2.78389177 C10.9223837,2.83530272 10.9664741,2.92161182 11.0049468,2.93063428 C11.7718474,3.10938095 12.4846139,3.41461216 13.158397,3.84139112 C13.6130899,3.38873646 14.0631866,2.9405079 14.5039204,2.50164227 C15.1678299,3.16675012 15.8281646,3.82828303 16.4936062,4.49492299 C16.0574687,4.92153171 15.603627,5.36516393 15.1439973,5.81458413 C15.220432,5.94311149 15.278822,6.03861329 15.3348287,6.13547696 C15.6611658,6.69980573 15.9034077,7.2986922 16.0492975,7.93400893 C16.0767051,8.05385432 16.1253918,8.08670966 16.2418313,8.08551801 C16.7581487,8.08024073 17.2746363,8.08330496 17.7911238,8.08330496 L18,8.08330496 L18,10.9175462 L17.2805944,10.9175462 C16.9261689,10.9175462 16.5717433,10.9141415 16.217488,10.9212914 C16.1660775,10.922483 16.0840251,10.9633394 16.0697255,11.004366 C15.9429018,11.3720735 15.8497842,11.7527188 15.7033836,12.1120847 C15.5569831,12.4714506 15.3608744,12.8105586 15.179576,13.1723078 C15.6163945,13.6074283 16.0664911,14.0559973 16.50365,14.4916284 C15.8339525,15.165248 15.1754904,15.8274619 14.5228163,16.4837175 C14.0899132,16.0499589 13.64237,15.6017304 13.1948269,15.1533316 C12.9668846,15.2791352 12.7828625,15.4064709 12.580285,15.4875028 C12.0808207,15.6873586 11.5748876,15.8725742 11.0662307,16.0477459 C10.9537066,16.0863892 10.9135315,16.1241814 10.9148934,16.241303 C10.9203409,16.7577958 10.9172767,17.2742885 10.9172767,17.7907813 L10.9172767,18 L8.0830638,18 L8.0830638,17.4079229 C8.0830638,17.0235325 8.07880797,16.639142 8.08544706,16.2547516 C8.08766009,16.1337145 8.05957161,16.0780477 7.92866227,16.0477459 C7.22815257,15.8858525 6.57224397,15.6109231 5.96025555,15.2319801 C5.92501727,15.2103603 5.8867148,15.193507 5.82628201,15.1621838 L5.82628201,15.1621838 Z"
      id="cms-inactive-CMS-copy" stroke="#9FADB4" fill="#5E6C80" /> </g>
  </symbol>
  <symbol viewBox="0 0 19 19" id="icon-cms">
    <title>CMS</title>
    <desc>Created with Sketch.</desc>
    <!-- Generator: Sketch 46.1 (44463) - http://www.bohemiancoding.com/sketch -->
    <g id="cms-Page-1" stroke="none" stroke-width="1" fill="none" fill-rule="evenodd">
      <path d="M10.737658,11.625 L10.737658,11.4359328 C10.737658,10.9292517 10.7419047,10.4225707 10.7347703,9.91604931 C10.7329017,9.78638496 10.7751988,9.70462615 10.8830647,9.61871553 C11.5093667,9.12001874 11.7606009,8.48926232 11.5542117,7.73283367 C11.2949937,6.78318597 10.2931144,6.20081415 9.17946218,6.33047851 C8.37327037,6.42421371 7.65659881,6.97848093 7.45309739,7.69642545 C7.22921184,8.4862283 7.49437522,9.13279356 8.14989443,9.65448501 C8.20764943,9.70063402 8.25487263,9.79149488 8.25623157,9.8623951 C8.26506469,10.3858431 8.26098787,10.9094508 8.26098787,11.4328987 L8.26098787,11.625 L10.737658,11.625 Z M5.82628201,15.1621838 C5.38112214,15.6117742 4.9340897,16.0632373 4.49148333,16.5102742 C3.82382865,15.8385272 3.16468562,15.1751217 2.50367003,14.5098436 C2.9386159,14.0757445 3.3885423,13.626835 3.8410222,13.1752018 C3.72407198,12.9654724 3.59520543,12.7817889 3.51383395,12.5790391 C3.31346945,12.07974 3.12791524,11.5739721 2.95257503,11.0651399 C2.91342139,10.951423 2.87375705,10.9139713 2.75782822,10.9151629 C2.24134064,10.9204402 1.72485305,10.9175462 1.20836546,10.9175462 L1,10.9175462 L1,8.08330496 L1.79243564,8.08330496 C2.12268808,8.08313473 2.45311076,8.08773107 2.78319297,8.07853838 C2.83596527,8.07700627 2.92295445,8.02270133 2.93350891,7.97827001 C3.11242402,7.23025776 3.41067262,6.53382668 3.81582768,5.88182692 C3.82195608,5.87212353 3.82280725,5.85901544 3.83370217,5.82088282 C3.39177673,5.38337906 2.940148,4.93634215 2.49907373,4.49985981 C3.16672842,3.8320282 3.82774401,3.17100599 4.49403683,2.50453626 C4.92285431,2.94186978 5.36733325,3.39520538 5.81742988,3.85432897 C5.94323223,3.77942561 6.0389033,3.72103503 6.13593623,3.66519797 C6.70077005,3.33936833 7.30033145,3.09899662 7.9349609,2.95106247 C8.05582648,2.9229737 8.08629823,2.8727544 8.0851066,2.75750536 C8.08016983,2.2410126 8.0830638,1.72451984 8.0830638,1.20802708 L8.0830638,1 L10.9172767,1 L10.9172767,1.82921432 C10.9172767,2.14755362 10.9135315,2.46589293 10.921192,2.78389177 C10.9223837,2.83530272 10.9664741,2.92161182 11.0049468,2.93063428 C11.7718474,3.10938095 12.4846139,3.41461216 13.158397,3.84139112 C13.6130899,3.38873646 14.0631866,2.9405079 14.5039204,2.50164227 C15.1678299,3.16675012 15.8281646,3.82828303 16.4936062,4.49492299 C16.0574687,4.92153171 15.603627,5.36516393 15.1439973,5.81458413 C15.220432,5.94311149 15.278822,6.03861329 15.3348287,6.13547696 C15.6611658,6.69980573 15.9034077,7.2986922 16.0492975,7.93400893 C16.0767051,8.05385432 16.1253918,8.08670966 16.2418313,8.08551801 C16.7581487,8.08024073 17.2746363,8.08330496 17.7911238,8.08330496 L18,8.08330496 L18,10.9175462 L17.2805944,10.9175462 C16.9261689,10.9175462 16.5717433,10.9141415 16.217488,10.9212914 C16.1660775,10.922483 16.0840251,10.9633394 16.0697255,11.004366 C15.9429018,11.3720735 15.8497842,11.7527188 15.7033836,12.1120847 C15.5569831,12.4714506 15.3608744,12.8105586 15.179576,13.1723078 C15.6163945,13.6074283 16.0664911,14.0559973 16.50365,14.4916284 C15.8339525,15.165248 15.1754904,15.8274619 14.5228163,16.4837175 C14.0899132,16.0499589 13.64237,15.6017304 13.1948269,15.1533316 C12.9668846,15.2791352 12.7828625,15.4064709 12.580285,15.4875028 C12.0808207,15.6873586 11.5748876,15.8725742 11.0662307,16.0477459 C10.9537066,16.0863892 10.9135315,16.1241814 10.9148934,16.241303 C10.9203409,16.7577958 10.9172767,17.2742885 10.9172767,17.7907813 L10.9172767,18 L8.0830638,18 L8.0830638,17.4079229 C8.0830638,17.0235325 8.07880797,16.639142 8.08544706,16.2547516 C8.08766009,16.1337145 8.05957161,16.0780477 7.92866227,16.0477459 C7.22815257,15.8858525 6.57224397,15.6109231 5.96025555,15.2319801 C5.92501727,15.2103603 5.8867148,15.193507 5.82628201,15.1621838 L5.82628201,15.1621838 Z"
      id="cms-CMS" stroke="#FF7D00" fill="#FFF2E6" /> </g>
  </symbol>
  <symbol viewBox="0 0 21 19" id="icon-comms-inactive">
    <title>com copy</title>
    <desc>Created with Sketch.</desc>
    <!-- Generator: Sketch 46.1 (44463) - http://www.bohemiancoding.com/sketch -->
    <g id="comms-inactive-Page-1" stroke="none" stroke-width="1" fill="none" fill-rule="evenodd">
      <g id="comms-inactive-com-copy">
        <g id="comms-inactive-Rectangle-1499">
          <use fill="#5E6C80" fill-rule="evenodd" xlink:href="#comms-inactive-path-1" />
          <path stroke="#9FADB4" stroke-width="1" d="M6.79785886,17.3950641 L10.2924318,14.7399998 L12.8818037,14.7399998 C16.8100741,14.7399998 20,11.5506533 20,7.61999989 C20,3.693225 16.810007,0.5 12.8818037,0.5 L8.11819631,0.5 C4.18992592,0.5 1,3.68934652 1,7.61999989 C1,10.6326117 2.89583303,13.2948513 5.68330679,14.3117491 L6.01194853,14.4316408 L6.01194853,17.0042208 C6.01194853,17.6925389 6.25053175,17.8109057 6.79785886,17.3950641 Z"
          /> </g>
        <path d="M6.5,6.5 L14.5500002,6.5" id="comms-inactive-Line" stroke="#9FADB4" stroke-linecap="square" />
        <path d="M6.5,9.5 L14.5500002,9.5" id="comms-inactive-Line-Copy-11" stroke="#9FADB4" stroke-linecap="square" /> </g>
    </g>
  </symbol>
  <symbol viewBox="0 0 21 19" id="icon-comms">
    <title>com</title>
    <desc>Created with Sketch.</desc>
    <!-- Generator: Sketch 46.1 (44463) - http://www.bohemiancoding.com/sketch -->
    <g id="comms-Page-1" stroke="none" stroke-width="1" fill="none" fill-rule="evenodd">
      <g id="comms-com">
        <g id="comms-Rectangle-1499">
          <use fill="#FBE8F7" fill-rule="evenodd" xlink:href="#comms-path-1" />
          <path stroke="#D91EB4" stroke-width="1" d="M6.79785886,17.3950641 L10.2924318,14.7399998 L12.8818037,14.7399998 C16.8100741,14.7399998 20,11.5506533 20,7.61999989 C20,3.693225 16.810007,0.5 12.8818037,0.5 L8.11819631,0.5 C4.18992592,0.5 1,3.68934652 1,7.61999989 C1,10.6326117 2.89583303,13.2948513 5.68330679,14.3117491 L6.01194853,14.4316408 L6.01194853,17.0042208 C6.01194853,17.6925389 6.25053175,17.8109057 6.79785886,17.3950641 Z"
          /> </g>
        <path d="M6.5,6.5 L14.5500002,6.5" id="comms-Line" stroke="#D91EB4" stroke-linecap="square" />
        <path d="M6.5,9.5 L14.5500002,9.5" id="comms-Line-Copy-11" stroke="#D91EB4" stroke-linecap="square" /> </g>
    </g>
  </symbol>
  <symbol viewBox="0 0 22 18" id="icon-finance-inactive">
    <title>finance copy</title>
    <desc>Created with Sketch.</desc>
    <!-- Generator: Sketch 46.1 (44463) - http://www.bohemiancoding.com/sketch -->
    <g id="finance-inactive-Page-1" stroke="none" stroke-width="1" fill="none" fill-rule="evenodd">
      <g id="finance-inactive-finance-copy" transform="translate(0.000000, 1.000000)">
        <g id="finance-inactive-Shape" fill-rule="nonzero">
          <use fill="#5E6C80" fill-rule="evenodd" xlink:href="#finance-inactive-path-1" />
          <path stroke="#9FADB4" stroke-width="1" d="M18.3939126,2.5 L0.836086937,2.5 C0.662117046,2.5 0.5,2.67898438 0.5,2.92307692 L0.5,15.8461538 C0.5,16.0902464 0.662117046,16.2692308 0.836086937,16.2692308 L18.3939126,16.2692308 C18.5678825,16.2692308 18.7299995,16.0902464 18.7299995,15.8461538 L18.7299995,2.92307692 C18.7299995,2.67898438 18.5678825,2.5 18.3939126,2.5 Z"
          /> </g>
        <path d="M1.54886569,0.17170598 L18.9550695,0.17170598 L18.9550695,0.17170598 C20.059639,0.17170598 20.9550695,1.06713648 20.9550695,2.17170598 L20.9550695,11.3009305" id="finance-inactive-Path-3" stroke="#9FADB4" stroke-linecap="round"
        />
        <path d="M9.03260424,5 C9.30086329,5.07003125 9.56615795,5.15574219 9.83838141,5.20464453 C10.0254234,5.23825391 10.0830325,5.31672266 10.0635676,5.49510547 C10.0471742,5.64501172 10.0601746,5.79797656 10.0601746,5.94580859 C10.3721851,5.99421875 10.6723024,6.02817969 10.9661337,6.0906875 C11.1736764,6.13484375 11.3748261,6.21225781 11.5738328,6.28759766 C11.6169414,6.30394531 11.6738004,6.38339844 11.6648358,6.41946875 C11.5707255,6.79912109 11.4645077,7.17589063 11.3603613,7.55807422 C11.1122815,7.47201172 10.8803808,7.35473047 10.6355869,7.31517969 C10.2520382,7.25323437 9.86013214,7.23291406 9.47086902,7.21860547 C9.3479363,7.21410547 9.21300318,7.26778906 9.09928506,7.32505859 C8.71784363,7.5171875 8.6564487,7.96602734 9.00167463,8.21240234 C9.25750468,8.39496875 9.55840768,8.52033594 9.84845318,8.65136328 C10.1555707,8.79008984 10.4828317,8.88708594 10.7851633,9.03442578 C11.6780863,9.46966016 12.0705995,10.1220547 11.9896325,10.9954414 C11.9112013,11.8414414 11.3315746,12.5012539 10.4345801,12.7656992 C10.4289013,12.7673164 10.4228297,12.7677031 10.4171509,12.7693203 C10.2873608,12.8064453 10.1031761,12.8058477 10.0423169,12.8908555 C9.97377883,12.9865859 10.0145659,13.1593789 10.0109944,13.2987383 C10.0049942,13.532457 10.0014941,13.7662461 9.99692247,14 L9.92549149,14 C9.59165881,13.9233945 9.25786184,13.8467891 8.90442135,13.7656836 L8.90442135,12.9580391 C8.23386303,12.9019648 7.59655583,12.7846836 7,12.4756602 C7.1108966,12.0478438 7.21929311,11.6298711 7.33211834,11.1945313 C7.39790627,11.2244844 7.45533678,11.2506055 7.51276729,11.2767266 C8.14932446,11.5664141 8.80945386,11.7398398 9.51701343,11.6437578 C9.661054,11.6241758 9.80866612,11.577418 9.93738475,11.5108672 C10.3333981,11.3062578 10.4125079,10.8399805 10.0818896,10.5442813 C9.90206213,10.3834414 9.67144721,10.2671797 9.44686821,10.167582 C9.09010618,10.0093437 8.71352206,9.89434766 8.3564743,9.73663672 C8.14696724,9.64414062 7.94506758,9.5219375 7.7636686,9.38289453 C6.77767108,8.627 6.83424441,7.17110938 7.89242294,6.47789844 C8.20696926,6.27177734 8.58201762,6.15512891 8.96117326,5.98310937 L8.96117326,5 L9.03260424,5 Z"
        id="finance-inactive-Fill-1-Copy-3" fill="#9FADB4" /> </g>
    </g>
  </symbol>
  <symbol viewBox="0 0 22 18" id="icon-finance">
    <title>finance</title>
    <desc>Created with Sketch.</desc>
    <!-- Generator: Sketch 46.1 (44463) - http://www.bohemiancoding.com/sketch -->
    <g id="finance-Page-1" stroke="none" stroke-width="1" fill="none" fill-rule="evenodd">
      <g id="finance-finance" transform="translate(0.000000, 1.000000)">
        <g id="finance-Shape" fill-rule="nonzero">
          <use fill="#E6F5FA" fill-rule="evenodd" xlink:href="#finance-path-1" />
          <path stroke="#009ED4" stroke-width="1" d="M18.3939126,2.5 L0.836086937,2.5 C0.662117046,2.5 0.5,2.67898438 0.5,2.92307692 L0.5,15.8461538 C0.5,16.0902464 0.662117046,16.2692308 0.836086937,16.2692308 L18.3939126,16.2692308 C18.5678825,16.2692308 18.7299995,16.0902464 18.7299995,15.8461538 L18.7299995,2.92307692 C18.7299995,2.67898438 18.5678825,2.5 18.3939126,2.5 Z"
          /> </g>
        <path d="M2,0 L19.4062038,0 L19.4062038,0 C20.5107733,-2.02906125e-16 21.4062038,0.8954305 21.4062038,2 L21.4062038,11.1292245" id="finance-Path-3" stroke="#009ED4" stroke-linecap="round" />
        <path d="M9.03260424,5 C9.30086329,5.07003125 9.56615795,5.15574219 9.83838141,5.20464453 C10.0254234,5.23825391 10.0830325,5.31672266 10.0635676,5.49510547 C10.0471742,5.64501172 10.0601746,5.79797656 10.0601746,5.94580859 C10.3721851,5.99421875 10.6723024,6.02817969 10.9661337,6.0906875 C11.1736764,6.13484375 11.3748261,6.21225781 11.5738328,6.28759766 C11.6169414,6.30394531 11.6738004,6.38339844 11.6648358,6.41946875 C11.5707255,6.79912109 11.4645077,7.17589063 11.3603613,7.55807422 C11.1122815,7.47201172 10.8803808,7.35473047 10.6355869,7.31517969 C10.2520382,7.25323437 9.86013214,7.23291406 9.47086902,7.21860547 C9.3479363,7.21410547 9.21300318,7.26778906 9.09928506,7.32505859 C8.71784363,7.5171875 8.6564487,7.96602734 9.00167463,8.21240234 C9.25750468,8.39496875 9.55840768,8.52033594 9.84845318,8.65136328 C10.1555707,8.79008984 10.4828317,8.88708594 10.7851633,9.03442578 C11.6780863,9.46966016 12.0705995,10.1220547 11.9896325,10.9954414 C11.9112013,11.8414414 11.3315746,12.5012539 10.4345801,12.7656992 C10.4289013,12.7673164 10.4228297,12.7677031 10.4171509,12.7693203 C10.2873608,12.8064453 10.1031761,12.8058477 10.0423169,12.8908555 C9.97377883,12.9865859 10.0145659,13.1593789 10.0109944,13.2987383 C10.0049942,13.532457 10.0014941,13.7662461 9.99692247,14 L9.92549149,14 C9.59165881,13.9233945 9.25786184,13.8467891 8.90442135,13.7656836 L8.90442135,12.9580391 C8.23386303,12.9019648 7.59655583,12.7846836 7,12.4756602 C7.1108966,12.0478438 7.21929311,11.6298711 7.33211834,11.1945313 C7.39790627,11.2244844 7.45533678,11.2506055 7.51276729,11.2767266 C8.14932446,11.5664141 8.80945386,11.7398398 9.51701343,11.6437578 C9.661054,11.6241758 9.80866612,11.577418 9.93738475,11.5108672 C10.3333981,11.3062578 10.4125079,10.8399805 10.0818896,10.5442813 C9.90206213,10.3834414 9.67144721,10.2671797 9.44686821,10.167582 C9.09010618,10.0093437 8.71352206,9.89434766 8.3564743,9.73663672 C8.14696724,9.64414062 7.94506758,9.5219375 7.7636686,9.38289453 C6.77767108,8.627 6.83424441,7.17110938 7.89242294,6.47789844 C8.20696926,6.27177734 8.58201762,6.15512891 8.96117326,5.98310937 L8.96117326,5 L9.03260424,5 Z"
        id="finance-Fill-1-Copy-4" fill="#009ED4" /> </g>
    </g>
  </symbol>
  <symbol viewBox="0 0 19 21" id="icon-horse-inactive">
    <title>Horse copy</title>
    <desc>Created with Sketch.</desc>
    <!-- Generator: Sketch 46.1 (44463) - http://www.bohemiancoding.com/sketch -->
    <g id="horse-inactive-Page-1" stroke="none" stroke-width="1" fill="none" fill-rule="evenodd">
      <g id="horse-inactive-Horse-copy" transform="translate(0.000000, 1.000000)">
        <path d="M17.683387,8.38424767 C17.8121352,8.20213522 17.8805668,7.95328381 17.9005956,7.72838421 C17.9726532,6.91846453 17.5331136,6.36262518 16.888797,5.92986212 C15.4805093,4.98404686 14.3078474,3.81563722 13.3734014,2.41664927 C13.1801927,2.12737216 12.9712143,1.84450469 12.7395596,1.58418341 C12.4509841,1.25987819 12.4266388,1.26218341 12.7135452,0.932817947 C12.9114157,0.705725578 13.1424373,0.505789835 13.3635596,0.298769755 C13.4154157,0.250191441 13.4873582,0.222022767 13.5500345,0.184464534 C12.7418618,-0.108635868 12.0219769,-0.0575274341 11.3403078,0.37422357 C11.2404517,0.437420357 11.089315,0.488416341 10.9811136,0.464014735 C9.47970352,0.12497859 8.03406323,0.330705498 6.66433661,0.958456502 C3.68068193,2.32567739 2.33858121,4.7646573 2.05650927,7.86416734 C1.92143014,9.34811112 2.03987618,10.8215408 2.29115675,12.2853561 C2.65288337,14.3927216 3.00393,14.9751269 4.26953125,16.673584 C6.66433668,19.8874512 11.4651298,18.2835899 11.6139765,18.2172852 C12.685998,17.7397461 13.5500345,16.673584 13.5500345,15.6777344 C13.5500345,14.3983577 12.1377179,13.0122878 11.5564229,12.3449545 C10.4239913,11.0450348 9.57587618,9.5856051 9.29978985,7.86787819 C9.2394733,7.49268943 9.2474733,7.10451273 9.25731503,6.72313923 C9.25938697,6.6447055 9.41017834,6.56998261 9.49242294,6.49351674 C9.56862438,6.57487417 9.66640855,6.64577377 9.71463877,6.74073763 C9.75918553,6.82833602 9.74830783,6.94207899 9.76563157,7.04373361 C9.92868193,8.00298662 10.6345237,8.51508301 11.6139769,8.36991032 C11.9635021,8.31807096 12.3076747,8.23137216 12.6543798,8.16120349 C13.5016316,7.98971755 14.3070992,8.02345249 15.0391855,8.55562116 C15.5529122,8.92901072 16.0911568,9.27023963 16.668538,9.65959706 C17.0062647,9.24117136 17.3689697,8.82898662 17.683387,8.38424767 Z"
        id="horse-inactive-Imported-Layers" stroke="#9FADB4" fill="#5E6C80" />
        <circle id="horse-inactive-Oval-32" fill="#9FADB4" cx="13" cy="5" r="1" />
        <path d="M0.817871094,10.3569336 C0.817871094,10.3569336 1.03295898,6.72485352 3.1574707,4.35888672" id="horse-inactive-Path-61" stroke="#9FADB4" />
        <path d="M0.806640625,4.97949219 C0.806640625,4.97949219 4.10986328,1.98535156 7.05395508,0.845458984" id="horse-inactive-Path-131" stroke="#9FADB4" /> </g>
    </g>
  </symbol>
  <symbol viewBox="0 0 19 21" id="icon-horse">
    <title>Horse</title>
    <desc>Created with Sketch.</desc>
    <!-- Generator: Sketch 46.1 (44463) - http://www.bohemiancoding.com/sketch -->
    <g id="horse-Page-1" stroke="none" stroke-width="1" fill="none" fill-rule="evenodd">
      <g id="horse-Horse" transform="translate(0.000000, 1.000000)">
        <path d="M17.683387,8.38424767 C17.8121352,8.20213522 17.8805668,7.95328381 17.9005956,7.72838421 C17.9726532,6.91846453 17.5331136,6.36262518 16.888797,5.92986212 C15.4805093,4.98404686 14.3078474,3.81563722 13.3734014,2.41664927 C13.1801927,2.12737216 12.9712143,1.84450469 12.7395596,1.58418341 C12.4509841,1.25987819 12.4266388,1.26218341 12.7135452,0.932817947 C12.9114157,0.705725578 13.1424373,0.505789835 13.3635596,0.298769755 C13.4154157,0.250191441 13.4873582,0.222022767 13.5500345,0.184464534 C12.7418618,-0.108635868 12.0219769,-0.0575274341 11.3403078,0.37422357 C11.2404517,0.437420357 11.089315,0.488416341 10.9811136,0.464014735 C9.47970352,0.12497859 8.03406323,0.330705498 6.66433661,0.958456502 C3.68068193,2.32567739 2.33858121,4.7646573 2.05650927,7.86416734 C1.92143014,9.34811112 2.03987618,10.8215408 2.29115675,12.2853561 C2.65288337,14.3927216 3.00393,14.9751269 4.26953125,16.673584 C6.66433668,19.8874512 11.4651298,18.2835899 11.6139765,18.2172852 C12.685998,17.7397461 13.5500345,16.673584 13.5500345,15.6777344 C13.5500345,14.3983577 12.1377179,13.0122878 11.5564229,12.3449545 C10.4239913,11.0450348 9.57587618,9.5856051 9.29978985,7.86787819 C9.2394733,7.49268943 9.2474733,7.10451273 9.25731503,6.72313923 C9.25938697,6.6447055 9.41017834,6.56998261 9.49242294,6.49351674 C9.56862438,6.57487417 9.66640855,6.64577377 9.71463877,6.74073763 C9.75918553,6.82833602 9.74830783,6.94207899 9.76563157,7.04373361 C9.92868193,8.00298662 10.6345237,8.51508301 11.6139769,8.36991032 C11.9635021,8.31807096 12.3076747,8.23137216 12.6543798,8.16120349 C13.5016316,7.98971755 14.3070992,8.02345249 15.0391855,8.55562116 C15.5529122,8.92901072 16.0911568,9.27023963 16.668538,9.65959706 C17.0062647,9.24117136 17.3689697,8.82898662 17.683387,8.38424767 Z"
        id="horse-Imported-Layers" stroke="#FF7D00" fill="#FFF2E6" />
        <circle id="horse-Oval-32" fill="#FF7D00" cx="13" cy="5" r="1" />
        <path d="M0.817871094,10.3569336 C0.817871094,10.3569336 1.03295898,6.72485352 3.1574707,4.35888672" id="horse-Path-61" stroke="#FF7D00" />
        <path d="M0.806640625,4.97949219 C0.806640625,4.97949219 4.10986328,1.98535156 7.05395508,0.845458984" id="horse-Path-131" stroke="#FF7D00" /> </g>
    </g>
  </symbol>
  <symbol viewBox="0 0 17 18" id="icon-icon-column">
    <title>List</title>
    <desc>Created with Sketch.</desc>
    <!-- Generator: Sketch 46.1 (44463) - http://www.bohemiancoding.com/sketch -->
    <g id="icon-column-New-Finance" stroke="none" stroke-width="1" fill="none" fill-rule="evenodd">
      <g id="icon-column-Finance---Add-transport-expense" transform="translate(-1155.000000, -338.000000)" fill-rule="nonzero" fill="#FFFFFF">
        <g id="icon-column-List" transform="translate(1163.500000, 347.000000) rotate(-90.000000) translate(-1163.500000, -347.000000) translate(1155.000000, 339.000000)">
          <path d="M0,0 L0,0.727272727 L0,3.63636364 L0,4.36363636 L0.739130435,4.36363636 L3.69565217,4.36363636 L4.43478261,4.36363636 L4.43478261,3.63636364 L4.43478261,0.727272727 L4.43478261,0 L3.69565217,0 L0.739130435,0 L0,0 Z M1.47826087,1.45454545 L2.95652174,1.45454545 L2.95652174,2.90909091 L1.47826087,2.90909091 L1.47826087,1.45454545 Z M5.91304348,1.45454545 L5.91304348,2.90909091 L17,2.90909091 L17,1.45454545 L5.91304348,1.45454545 Z M0,5.81818182 L0,6.54545455 L0,9.45454545 L0,10.1818182 L0.739130435,10.1818182 L3.69565217,10.1818182 L4.43478261,10.1818182 L4.43478261,9.45454545 L4.43478261,6.54545455 L4.43478261,5.81818182 L3.69565217,5.81818182 L0.739130435,5.81818182 L0,5.81818182 Z M1.47826087,7.27272727 L2.95652174,7.27272727 L2.95652174,8.72727273 L1.47826087,8.72727273 L1.47826087,7.27272727 Z M5.91304348,7.27272727 L5.91304348,8.72727273 L17,8.72727273 L17,7.27272727 L5.91304348,7.27272727 Z M0,11.6363636 L0,12.3636364 L0,15.2727273 L0,16 L0.739130435,16 L3.69565217,16 L4.43478261,16 L4.43478261,15.2727273 L4.43478261,12.3636364 L4.43478261,11.6363636 L3.69565217,11.6363636 L0.739130435,11.6363636 L0,11.6363636 Z M1.47826087,13.0909091 L2.95652174,13.0909091 L2.95652174,14.5454545 L1.47826087,14.5454545 L1.47826087,13.0909091 Z M5.91304348,13.0909091 L5.91304348,14.5454545 L17,14.5454545 L17,13.0909091 L5.91304348,13.0909091 Z"
          id="icon-column-Shape" /> </g>
      </g>
    </g>
  </symbol>
  <symbol viewBox="0 0 14 18" id="icon-notification-inactive">
    <title>notification copy</title>
    <desc>Created with Sketch.</desc>
    <!-- Generator: Sketch 46.1 (44463) - http://www.bohemiancoding.com/sketch -->
    <g id="notification-inactive-Page-1" stroke="none" stroke-width="1" fill="none" fill-rule="evenodd">
      <g id="notification-inactive-notification-copy">
        <path d="M5.83333333,14.625 L8.16666667,14.625 L8.16666667,16.8385165 C8.16666667,17.4799861 7.64882437,18 7,18 L7,18 C6.35566779,18 5.83333333,17.4726562 5.83333333,16.8385165 L5.83333333,14.625 Z" id="notification-inactive-Rectangle-4" fill="#9FADB4"
        />
        <path d="M5.83333333,1.15886182 C5.83333333,0.518840108 6.35117563,0 7,0 L7,0 C7.64433221,0 8.16666667,0.516207218 8.16666667,1.15886182 L8.16666667,4.5 L5.83333333,4.5 L5.83333333,1.15886182 Z" id="notification-inactive-Rectangle-5" fill="#9FADB4"
        />
        <g id="notification-inactive-Rectangle-2">
          <use fill="#5E6C80" fill-rule="evenodd" xlink:href="#notification-inactive-path-1" />
          <path stroke="#9FADB4" stroke-width="1" d="M1.66666667,15.5 L12.3333333,15.5 L12.3333333,7.83588397 C12.3333333,4.89150886 9.94401661,2.5 7,2.5 C4.05873479,2.5 1.66666667,4.89125785 1.66666667,7.83588397 L1.66666667,15.5 Z" /> </g>
        <rect id="notification-inactive-Rectangle-3" fill="#9FADB4" x="0" y="15" width="14" height="1" /> </g>
    </g>
  </symbol>
  <symbol viewBox="0 0 14 18" id="icon-notification">
    <title>notification</title>
    <desc>Created with Sketch.</desc>
    <!-- Generator: Sketch 46.1 (44463) - http://www.bohemiancoding.com/sketch -->
    <g id="notification-Page-1" stroke="none" stroke-width="1" fill="none" fill-rule="evenodd">
      <g id="notification-notification">
        <path d="M5.83333333,14.625 L8.16666667,14.625 L8.16666667,16.8385165 C8.16666667,17.4799861 7.64882437,18 7,18 L7,18 C6.35566779,18 5.83333333,17.4726562 5.83333333,16.8385165 L5.83333333,14.625 Z" id="notification-Rectangle-4" fill="#2ED000" />
        <path d="M5.83333333,1.15886182 C5.83333333,0.518840108 6.35117563,0 7,0 L7,0 C7.64433221,0 8.16666667,0.516207218 8.16666667,1.15886182 L8.16666667,4.5 L5.83333333,4.5 L5.83333333,1.15886182 Z" id="notification-Rectangle-5" fill="#2ED000" />
        <g id="notification-Rectangle-2">
          <use fill="#EAFAE6" fill-rule="evenodd" xlink:href="#notification-path-1" />
          <path stroke="#2ED000" stroke-width="1" d="M1.66666667,15.5 L12.3333333,15.5 L12.3333333,7.83588397 C12.3333333,4.89150886 9.94401661,2.5 7,2.5 C4.05873479,2.5 1.66666667,4.89125785 1.66666667,7.83588397 L1.66666667,15.5 Z" /> </g>
        <rect id="notification-Rectangle-3" fill="#2ED000" x="0" y="15" width="14" height="1" /> </g>
    </g>
  </symbol>
  <symbol viewBox="0 0 16 16" id="icon-owner-inactive">
    <title>owner copy</title>
    <desc>Created with Sketch.</desc>
    <!-- Generator: Sketch 46.1 (44463) - http://www.bohemiancoding.com/sketch -->
    <g id="owner-inactive-Page-1" stroke="none" stroke-width="1" fill="none" fill-rule="evenodd">
      <g id="owner-inactive-owner-copy">
        <use fill="#5E6C80" fill-rule="evenodd" xlink:href="#owner-inactive-path-1" />
        <path stroke="#9FADB4" stroke-width="1" d="M0.547931793,15.0817915 C0.516066524,14.8896197 0.5,14.6954324 0.5,14.5 C0.5,11.6857072 3.77856085,9.5 7.75,9.5 C11.7214392,9.5 15,11.6857072 15,14.5 C15,14.6954324 14.9839335,14.8896197 14.9520682,15.0817915 L14.8827223,15.5 L0.617277703,15.5 L0.547931793,15.0817915 Z M8.25,7.5 C6.31700338,7.5 4.75,5.93299662 4.75,4 C4.75,2.06700338 6.31700338,0.5 8.25,0.5 C10.1829966,0.5 11.75,2.06700338 11.75,4 C11.75,5.93299662 10.1829966,7.5 8.25,7.5 Z"
        /> </g>
    </g>
  </symbol>
  <symbol viewBox="0 0 16 16" id="icon-owner">
    <title>owner</title>
    <desc>Created with Sketch.</desc>
    <!-- Generator: Sketch 46.1 (44463) - http://www.bohemiancoding.com/sketch -->
    <g id="owner-Page-1" stroke="none" stroke-width="1" fill="none" fill-rule="evenodd">
      <g id="owner-owner">
        <use fill="#E9FAE5" fill-rule="evenodd" xlink:href="#owner-path-1" />
        <path stroke="#2ED000" stroke-width="1" d="M0.547931793,15.0817915 C0.516066524,14.8896197 0.5,14.6954324 0.5,14.5 C0.5,11.6857072 3.77856085,9.5 7.75,9.5 C11.7214392,9.5 15,11.6857072 15,14.5 C15,14.6954324 14.9839335,14.8896197 14.9520682,15.0817915 L14.8827223,15.5 L0.617277703,15.5 L0.547931793,15.0817915 Z M8.25,7.5 C6.31700338,7.5 4.75,5.93299662 4.75,4 C4.75,2.06700338 6.31700338,0.5 8.25,0.5 C10.1829966,0.5 11.75,2.06700338 11.75,4 C11.75,5.93299662 10.1829966,7.5 8.25,7.5 Z"
        /> </g>
    </g>
  </symbol>
  <symbol viewBox="0 0 17 19" id="icon-racing-inactive">
    <title>racing_icon copy</title>
    <desc>Created with Sketch.</desc>
    <!-- Generator: Sketch 46.1 (44463) - http://www.bohemiancoding.com/sketch -->
    <g id="racing-inactive-Page-1" stroke="none" stroke-width="1" fill="none" fill-rule="evenodd">
      <g id="racing-inactive-racing_icon-copy" transform="translate(1.000000, 1.000000)">
        <path d="M11.6339983,5.05684989 C14.3175398,3.53602818 14.9522618,2.95754569 14.9522618,1.53193883 C14.9522618,0.106331961 14.1684013,8.8817842e-16 12.315543,8.8817842e-16 L5.35714286,0.131639753 L4.8172433,5.05684989 L11.6339983,5.05684989 Z" id="racing-inactive-Oval-66-Copy-2"
        stroke="#9FADB4" fill="#5E6C80" />
        <path d="M6.81675502,5.05684989 C9.50029646,3.53602818 10.1350185,2.95754569 10.1350185,1.53193883 C10.1350185,0.106331961 9.35115797,8.8817842e-16 7.49829973,8.8817842e-16 L0.539899554,0.131639753 L1.06343505e-13,5.05684989 L6.81675502,5.05684989 Z"
        id="racing-inactive-Oval-66-Copy-3" stroke="#9FADB4" fill="#5E6C80" transform="translate(5.067509, 2.528425) scale(-1, 1) translate(-5.067509, -2.528425) " />
        <path d="M3.16701681,0 L11.7384454,0 L11.7384454,3.4417404 C11.7384454,5.34256114 10.2060457,6.88348081 8.30150566,6.88348081 L6.60395652,6.88348081 C4.70578713,6.88348081 3.16701681,5.33869335 3.16701681,3.4417404 L3.16701681,0 Z" id="racing-inactive-Rectangle-225"
        stroke="#9FADB4" fill="#5E6C80" />
        <g id="racing-inactive-Rectangle-226">
          <use fill="#5E6C80" fill-rule="evenodd" xlink:href="#racing-inactive-path-1" />
          <path stroke="#9FADB4" stroke-width="1" d="M3.43907563,15.9453782 C3.43907563,15.0963618 4.12876374,14.4054622 4.97465358,14.4054622 L10.0253464,14.4054622 C10.8749735,14.4054622 11.5609244,15.0924545 11.5609244,15.9453782 L11.5609244,17.4852941 L3.43907563,17.4852941 L3.43907563,15.9453782 Z"
          /> </g>
        <g id="racing-inactive-Rectangle-226-Copy-2">
          <use fill="#5E6C80" fill-rule="evenodd" xlink:href="#racing-inactive-path-2" />
          <path stroke="#9FADB4" stroke-width="1" d="M5.39285714,13.3298319 C5.39285714,12.6871388 5.91441351,12.1680672 6.55885922,12.1680672 L8.44114078,12.1680672 C9.08498657,12.1680672 9.60714286,12.6855214 9.60714286,13.3298319 L9.60714286,14.4915966 L5.39285714,14.4915966 L5.39285714,13.3298319 Z"
          /> </g>
        <rect id="racing-inactive-Rectangle-227" fill="#9FADB4" x="6.42857143" y="6.42857143" width="2.14285714" height="5.35714286" /> </g>
    </g>
  </symbol>
  <symbol viewBox="0 0 17 19" id="icon-racing">
    <title>racing_icon</title>
    <desc>Created with Sketch.</desc>
    <!-- Generator: Sketch 46.1 (44463) - http://www.bohemiancoding.com/sketch -->
    <g id="racing-Page-1" stroke="none" stroke-width="1" fill="none" fill-rule="evenodd">
      <g id="racing-racing_icon" transform="translate(1.000000, 1.000000)">
        <path d="M11.6339983,5.05684989 C14.3175398,3.53602818 14.9522618,2.95754569 14.9522618,1.53193883 C14.9522618,0.106331961 14.1684013,8.8817842e-16 12.315543,8.8817842e-16 L5.35714286,0.131639753 L4.8172433,5.05684989 L11.6339983,5.05684989 Z" id="racing-Oval-66-Copy-2"
        stroke="#FF7D00" fill="#FFF1E5" />
        <path d="M6.81675502,5.05684989 C9.50029646,3.53602818 10.1350185,2.95754569 10.1350185,1.53193883 C10.1350185,0.106331961 9.35115797,8.8817842e-16 7.49829973,8.8817842e-16 L0.539899554,0.131639753 L1.06343505e-13,5.05684989 L6.81675502,5.05684989 Z"
        id="racing-Oval-66-Copy-3" stroke="#FF7D00" fill="#FFF1E5" transform="translate(5.067509, 2.528425) scale(-1, 1) translate(-5.067509, -2.528425) " />
        <path d="M3.16701681,0 L11.7384454,0 L11.7384454,3.4417404 C11.7384454,5.34256114 10.2060457,6.88348081 8.30150566,6.88348081 L6.60395652,6.88348081 C4.70578713,6.88348081 3.16701681,5.33869335 3.16701681,3.4417404 L3.16701681,0 Z" id="racing-Rectangle-225"
        stroke="#FF7D00" fill="#FFF1E5" />
        <g id="racing-Rectangle-226">
          <use fill="#FFF1E5" fill-rule="evenodd" xlink:href="#racing-path-1" />
          <path stroke="#FF7D00" stroke-width="1" d="M3.43907563,15.9453782 C3.43907563,15.0963618 4.12876374,14.4054622 4.97465358,14.4054622 L10.0253464,14.4054622 C10.8749735,14.4054622 11.5609244,15.0924545 11.5609244,15.9453782 L11.5609244,17.4852941 L3.43907563,17.4852941 L3.43907563,15.9453782 Z"
          /> </g>
        <g id="racing-Rectangle-226-Copy-2">
          <use fill="#FFF1E5" fill-rule="evenodd" xlink:href="#racing-path-2" />
          <path stroke="#FF7D00" stroke-width="1" d="M5.39285714,13.3298319 C5.39285714,12.6871388 5.91441351,12.1680672 6.55885922,12.1680672 L8.44114078,12.1680672 C9.08498657,12.1680672 9.60714286,12.6855214 9.60714286,13.3298319 L9.60714286,14.4915966 L5.39285714,14.4915966 L5.39285714,13.3298319 Z"
          /> </g>
        <rect id="racing-Rectangle-227" fill="#FF7D00" x="6.42857143" y="6.42857143" width="2.14285714" height="5.35714286" /> </g>
    </g>
  </symbol>
  <symbol viewBox="0 0 21 17" id="icon-report-inactive">
    <title>report copy</title>
    <desc>Created with Sketch.</desc>
    <!-- Generator: Sketch 46.1 (44463) - http://www.bohemiancoding.com/sketch -->
    <g id="report-inactive-Page-1" stroke="none" stroke-width="1" fill="none" fill-rule="evenodd">
      <g id="report-inactive-report-copy" transform="translate(1.000000, 1.000000)">
        <g id="report-inactive-Group-4" transform="translate(4.839319, 4.914934)">
          <g id="report-inactive-Combined-Shape">
            <use fill="#5E6C80" fill-rule="evenodd" xlink:href="#report-inactive-path-1" />
            <path stroke="#9FADB4" stroke-width="1" d="M11.5982987,-0.5 L12.4037479,-0.5 C13.2316599,-0.5 13.9037585,0.175133198 13.9037585,1.00246365 L13.9037585,8.36482201 C13.9037585,9.1940483 13.2316723,9.86728567 12.4037479,9.86728567 L1.79396139,9.86728567 C0.966049383,9.86728567 0.293950851,9.19215247 0.293950851,8.36482201 L0.293950851,7.32608696 L9.09892192,7.32608696 C10.484463,7.32608696 11.5982987,6.20920036 11.5982987,4.82429284 L11.5982987,-0.5 Z"
            /> </g>
        </g>
        <g id="report-inactive-Rectangle-459">
          <use fill="#5E6C80" fill-rule="evenodd" xlink:href="#report-inactive-path-2" />
          <rect stroke="#9FADB4" stroke-width="1" x="0.293950851" y="-0.5" width="13.6098076" height="10.3672857" rx="0.600000024" /> </g>
        <path d="M0.771853586,2.77533894 L14.0928493,2.77533894" id="report-inactive-Path-210" stroke="#9FADB4" /> </g>
    </g>
  </symbol>
  <symbol viewBox="0 0 21 17" id="icon-report">
    <title>report</title>
    <desc>Created with Sketch.</desc>
    <!-- Generator: Sketch 46.1 (44463) - http://www.bohemiancoding.com/sketch -->
    <g id="report-Page-1" stroke="none" stroke-width="1" fill="none" fill-rule="evenodd">
      <g id="report-report" transform="translate(1.000000, 1.000000)">
        <g id="report-Group-4" transform="translate(4.839319, 4.914934)">
          <g id="report-Combined-Shape">
            <use fill="#EAFAE6" fill-rule="evenodd" xlink:href="#report-path-1" />
            <path stroke="#2ED000" stroke-width="1" d="M11.5982987,-0.5 L12.4037479,-0.5 C13.2316599,-0.5 13.9037585,0.175133198 13.9037585,1.00246365 L13.9037585,8.36482201 C13.9037585,9.1940483 13.2316723,9.86728567 12.4037479,9.86728567 L1.79396139,9.86728567 C0.966049383,9.86728567 0.293950851,9.19215247 0.293950851,8.36482201 L0.293950851,7.32608696 L9.09892192,7.32608696 C10.484463,7.32608696 11.5982987,6.20920036 11.5982987,4.82429284 L11.5982987,-0.5 Z"
            /> </g>
        </g>
        <g id="report-Rectangle-459">
          <use fill="#E9FAE5" fill-rule="evenodd" xlink:href="#report-path-2" />
          <rect stroke="#2ED000" stroke-width="1" x="0.293950851" y="-0.5" width="13.6098076" height="10.3672857" rx="0.600000024" /> </g>
        <path d="M0.771853586,2.77533894 L14.0928493,2.77533894" id="report-Path-210" stroke="#2ED000" /> </g>
    </g>
  </symbol>
  <symbol viewBox="0 0 17 18" id="icon-schedule-inactive">
    <title>schedule copy</title>
    <desc>Created with Sketch.</desc>
    <!-- Generator: Sketch 46.1 (44463) - http://www.bohemiancoding.com/sketch -->
    <g id="schedule-inactive-Page-1" stroke="none" stroke-width="1" fill="none" fill-rule="evenodd">
      <g id="schedule-inactive-schedule-copy">
        <mask id="schedule-inactive-mask-2" fill="white">
          <use xlink:href="#schedule-inactive-path-1" /> </mask>
        <g id="schedule-inactive-Mask">
          <use fill="#5E6C80" fill-rule="evenodd" xlink:href="#schedule-inactive-path-1" />
          <rect stroke="#9FADB4" stroke-width="1" x="0.5" y="2.5" width="16" height="15" rx="2" /> </g>
        <rect id="schedule-inactive-Rectangle-11" fill="#9FADB4" x="0" y="6" width="17" height="1" />
        <path d="M4,0.998956561 C4,0.447248087 4.44386482,0 5,0 L5,0 C5.55228475,0 6,0.442660332 6,0.998956561 L6,3 L4,3 L4,0.998956561 Z" id="schedule-inactive-Rectangle-12" fill="#9FADB4" />
        <path d="M11,0.998956561 C11,0.447248087 11.4438648,0 12,0 L12,0 C12.5522847,0 13,0.442660332 13,0.998956561 L13,3 L11,3 L11,0.998956561 Z" id="schedule-inactive-Rectangle-12-Copy" fill="#9FADB4" />
        <rect id="schedule-inactive-Rectangle-14" fill="#9FADB4" x="3" y="13" width="2" height="2" />
        <rect id="schedule-inactive-Rectangle-14-Copy" fill="#9FADB4" x="6" y="13" width="2" height="2" />
        <rect id="schedule-inactive-Rectangle-14-Copy-2" fill="#9FADB4" x="9" y="9" width="2" height="2" />
        <rect id="schedule-inactive-Rectangle-14-Copy-3" fill="#9FADB4" x="12" y="9" width="2" height="2" /> </g>
    </g>
  </symbol>
  <symbol viewBox="0 0 17 18" id="icon-schedule">
    <title>schedule</title>
    <desc>Created with Sketch.</desc>
    <!-- Generator: Sketch 46.1 (44463) - http://www.bohemiancoding.com/sketch -->
    <g id="schedule-Page-1" stroke="none" stroke-width="1" fill="none" fill-rule="evenodd">
      <g id="schedule-schedule">
        <mask id="schedule-mask-2" fill="white">
          <use xlink:href="#schedule-path-1" /> </mask>
        <g id="schedule-Mask">
          <use fill="#E6F5FA" fill-rule="evenodd" xlink:href="#schedule-path-1" />
          <rect stroke="#009ED4" stroke-width="1" x="0.5" y="2.5" width="16" height="15" rx="2" /> </g>
        <rect id="schedule-Rectangle-11" fill="#009ED4" x="0" y="6" width="17" height="1" />
        <path d="M4,0.998956561 C4,0.447248087 4.44386482,0 5,0 L5,0 C5.55228475,0 6,0.442660332 6,0.998956561 L6,3 L4,3 L4,0.998956561 Z" id="schedule-Rectangle-12" fill="#009ED4" />
        <path d="M11,0.998956561 C11,0.447248087 11.4438648,0 12,0 L12,0 C12.5522847,0 13,0.442660332 13,0.998956561 L13,3 L11,3 L11,0.998956561 Z" id="schedule-Rectangle-12-Copy" fill="#009ED4" />
        <rect id="schedule-Rectangle-14" fill="#009ED4" x="3" y="13" width="2" height="2" />
        <rect id="schedule-Rectangle-14-Copy" fill="#009ED4" x="6" y="13" width="2" height="2" />
        <rect id="schedule-Rectangle-14-Copy-2" fill="#009ED4" x="9" y="9" width="2" height="2" />
        <rect id="schedule-Rectangle-14-Copy-3" fill="#009ED4" x="12" y="9" width="2" height="2" /> </g>
    </g>
  </symbol>
  <symbol viewBox="0 0 23 18" id="icon-staff-inactive">
    <title>staff copy</title>
    <desc>Created with Sketch.</desc>
    <!-- Generator: Sketch 46.1 (44463) - http://www.bohemiancoding.com/sketch -->
    <g id="staff-inactive-Page-1" stroke="none" stroke-width="1" fill="none" fill-rule="evenodd" stroke-linejoin="round">
      <g id="staff-inactive-staff-copy" transform="translate(1.000000, 1.000000)">
        <g id="staff-inactive-Oval-5-Copy" stroke-linecap="round">
          <use fill="#5E6C80" fill-rule="evenodd" xlink:href="#staff-inactive-path-1" />
          <path stroke="#9FADB4" stroke-width="1" d="M9.53694235,7.84267783 L10.3314035,8.37725571 L9.43868071,8.72364861 C7.68328525,9.40477438 6.40423661,10.3634044 5.81278248,11.4248558 L5.66978741,11.6814815 L-0.338878036,11.6814815 L-0.408223945,11.263273 C-0.434538087,11.1045787 -0.447807436,10.9441993 -0.447807436,10.7828042 C-0.447807436,8.47214256 2.21834291,6.69470899 5.43433542,6.69470899 C6.98624767,6.69470899 8.44717921,7.10939688 9.53694235,7.84267783 Z M5.59657087,4.8297619 C4.12991151,4.8297619 2.94094918,3.64079957 2.94094918,2.17414021 C2.94094918,0.707480849 4.12991151,-0.481481481 5.59657087,-0.481481481 C7.06323023,-0.481481481 8.25219256,0.707480849 8.25219256,2.17414021 C8.25219256,3.64079957 7.06323023,4.8297619 5.59657087,4.8297619 Z"
          /> </g>
        <g id="staff-inactive-Oval-5-Copy-2">
          <use fill="#5E6C80" fill-rule="evenodd" xlink:href="#staff-inactive-path-2" />
          <path stroke="#9FADB4" stroke-width="1" d="M7.10986342,15.3425415 C7.07956348,15.1598098 7.06428571,14.9751559 7.06428571,14.7893214 C7.06428571,12.1170447 10.1701564,10.0464643 13.9285714,10.0464643 C17.6869865,10.0464643 20.7928571,12.1170447 20.7928571,14.7893214 C20.7928571,14.9751559 20.7775794,15.1598098 20.7472794,15.3425415 L20.6779335,15.76075 L7.17920933,15.76075 L7.10986342,15.3425415 Z M14.4,8.21789286 C12.5616808,8.21789286 11.0714286,6.72764067 11.0714286,4.88932143 C11.0714286,3.05100219 12.5616808,1.56075 14.4,1.56075 C16.2383192,1.56075 17.7285714,3.05100219 17.7285714,4.88932143 C17.7285714,6.72764067 16.2383192,8.21789286 14.4,8.21789286 Z"
          /> </g>
      </g>
    </g>
  </symbol>
  <symbol viewBox="0 0 23 18" id="icon-staff">
    <title>staff</title>
    <desc>Created with Sketch.</desc>
    <!-- Generator: Sketch 46.1 (44463) - http://www.bohemiancoding.com/sketch -->
    <g id="staff-Page-1" stroke="none" stroke-width="1" fill="none" fill-rule="evenodd" stroke-linejoin="round">
      <g id="staff-staff" transform="translate(1.000000, 1.000000)">
        <g id="staff-Oval-5-Copy" stroke-linecap="round">
          <use fill="#FBE8F7" fill-rule="evenodd" xlink:href="#staff-path-1" />
          <path stroke="#D91EB4" stroke-width="1" d="M9.53694235,7.84267783 L10.3314035,8.37725571 L9.43868071,8.72364861 C7.68328525,9.40477438 6.40423661,10.3634044 5.81278248,11.4248558 L5.66978741,11.6814815 L-0.338878036,11.6814815 L-0.408223945,11.263273 C-0.434538087,11.1045787 -0.447807436,10.9441993 -0.447807436,10.7828042 C-0.447807436,8.47214256 2.21834291,6.69470899 5.43433542,6.69470899 C6.98624767,6.69470899 8.44717921,7.10939688 9.53694235,7.84267783 Z M5.59657087,4.8297619 C4.12991151,4.8297619 2.94094918,3.64079957 2.94094918,2.17414021 C2.94094918,0.707480849 4.12991151,-0.481481481 5.59657087,-0.481481481 C7.06323023,-0.481481481 8.25219256,0.707480849 8.25219256,2.17414021 C8.25219256,3.64079957 7.06323023,4.8297619 5.59657087,4.8297619 Z"
          /> </g>
        <g id="staff-Oval-5-Copy-2">
          <use fill="#FBE8F7" fill-rule="evenodd" xlink:href="#staff-path-2" />
          <path stroke="#D91EB4" stroke-width="1" d="M7.10986342,15.3425415 C7.07956348,15.1598098 7.06428571,14.9751559 7.06428571,14.7893214 C7.06428571,12.1170447 10.1701564,10.0464643 13.9285714,10.0464643 C17.6869865,10.0464643 20.7928571,12.1170447 20.7928571,14.7893214 C20.7928571,14.9751559 20.7775794,15.1598098 20.7472794,15.3425415 L20.6779335,15.76075 L7.17920933,15.76075 L7.10986342,15.3425415 Z M14.4,8.21789286 C12.5616808,8.21789286 11.0714286,6.72764067 11.0714286,4.88932143 C11.0714286,3.05100219 12.5616808,1.56075 14.4,1.56075 C16.2383192,1.56075 17.7285714,3.05100219 17.7285714,4.88932143 C17.7285714,6.72764067 16.2383192,8.21789286 14.4,8.21789286 Z"
          /> </g>
      </g>
    </g>
  </symbol>
  <symbol viewBox="0 0 15 19" id="icon-task-inactive">
    <title>Task copy</title>
    <desc>Created with Sketch.</desc>
    <!-- Generator: Sketch 46.1 (44463) - http://www.bohemiancoding.com/sketch -->
    <g id="task-inactive-Page-1" stroke="none" stroke-width="1" fill="none" fill-rule="evenodd">
      <g id="task-inactive-Task-copy" transform="translate(1.000000, 1.000000)" stroke="#9FADB4">
        <path d="M9.74268196,3.77777778 L9.74268196,0.379464286 C9.85010591,0.446662911 9.93799691,0.513860529 10.0063576,0.581059154 L12.9946816,3.51858438 C13.0630423,3.585783 13.131402,3.67217994 13.1997627,3.77777778 L9.74268196,3.77777778 Z M7.69986155,5.16071429 C7.69986155,5.41369174 7.78006764,5.62871935 7.94048222,5.80580357 C8.10089681,5.98288779 8.29568302,6.07142857 8.52484672,6.07142857 L13.1997627,6.07142857 L13.1997627,16.0892857 C13.1997627,16.3422632 13.1195566,16.5572908 12.959142,16.734375 C12.7987274,16.9114592 12.6039412,17 12.3747775,17 L0.824985166,17 C0.595821474,17 0.401035258,16.9114592 0.240620673,16.734375 C0.0802060891,16.5572908 0,16.3422632 0,16.0892857 L0,0.910714286 C0,0.65773683 0.0802060891,0.442709219 0.240620673,0.265625 C0.401035258,0.0885407812 0.595821474,0 0.824985166,0 L7.69986155,0 L7.69986155,5.16071429 Z"
        id="task-inactive-file---FontAwesome" fill="#5E6C80" />
        <path d="M2.4375,8.5 L8.5625,8.5" id="task-inactive-Line-2" stroke-linecap="square" />
        <path d="M2.5625,11.5 L10.4375,11.5" id="task-inactive-Line-2-Copy" stroke-linecap="square" />
        <path d="M2.5625,14.5 L10.4375,14.5" id="task-inactive-Line-2-Copy-2" stroke-linecap="square" /> </g>
    </g>
  </symbol>
  <symbol viewBox="0 0 15 19" id="icon-task">
    <title>Task</title>
    <desc>Created with Sketch.</desc>
    <!-- Generator: Sketch 46.1 (44463) - http://www.bohemiancoding.com/sketch -->
    <g id="task-Page-1" stroke="none" stroke-width="1" fill="none" fill-rule="evenodd">
      <g id="task-Task" transform="translate(1.000000, 1.000000)" stroke="#D91EB4">
        <path d="M9.74268196,3.77777778 L9.74268196,0.379464286 C9.85010591,0.446662911 9.93799691,0.513860529 10.0063576,0.581059154 L12.9946816,3.51858438 C13.0630423,3.585783 13.131402,3.67217994 13.1997627,3.77777778 L9.74268196,3.77777778 Z M7.69986155,5.16071429 C7.69986155,5.41369174 7.78006764,5.62871935 7.94048222,5.80580357 C8.10089681,5.98288779 8.29568302,6.07142857 8.52484672,6.07142857 L13.1997627,6.07142857 L13.1997627,16.0892857 C13.1997627,16.3422632 13.1195566,16.5572908 12.959142,16.734375 C12.7987274,16.9114592 12.6039412,17 12.3747775,17 L0.824985166,17 C0.595821474,17 0.401035258,16.9114592 0.240620673,16.734375 C0.0802060891,16.5572908 0,16.3422632 0,16.0892857 L0,0.910714286 C0,0.65773683 0.0802060891,0.442709219 0.240620673,0.265625 C0.401035258,0.0885407812 0.595821474,0 0.824985166,0 L7.69986155,0 L7.69986155,5.16071429 Z"
        id="task-file---FontAwesome" fill="#FBE8F7" />
        <path d="M2.4375,8.5 L8.5625,8.5" id="task-Line-2" stroke-linecap="square" />
        <path d="M2.5625,11.5 L10.4375,11.5" id="task-Line-2-Copy" stroke-linecap="square" />
        <path d="M2.5625,14.5 L10.4375,14.5" id="task-Line-2-Copy-2" stroke-linecap="square" /> </g>
    </g>
  </symbol>
  <symbol viewBox="0 0 16 17" id="icon-trainer-inactive">
    <title>supplier copy</title>
    <desc>Created with Sketch.</desc>
    <!-- Generator: Sketch 46.1 (44463) - http://www.bohemiancoding.com/sketch -->
    <g id="trainer-inactive-Page-1" stroke="none" stroke-width="1" fill="none" fill-rule="evenodd">
      <g id="trainer-inactive-supplier-copy">
        <use fill="#5E6C80" fill-rule="evenodd" xlink:href="#trainer-inactive-path-1" />
        <path stroke="#9FADB4" stroke-width="1" d="M10.4569818,3.3125 L11.3743546,3.3125 C11.9079089,3.3125 12.3426622,3.75251898 12.3426622,4.28125 C12.3426622,4.81615429 11.9091696,5.25 11.3743546,5.25 L11.0034313,5.25 C11.0231654,5.39413809 11.0331619,5.54020962 11.0331619,5.6875 C11.0331619,7.521756 9.4914359,9 7.59988133,9 C5.70832676,9 4.16660074,7.521756 4.16660074,5.6875 C4.16660074,5.54020962 4.17659725,5.39413809 4.19633218,5.25 L3.8254081,5.25 C3.29185372,5.25 2.85710047,4.80998102 2.85710047,4.28125 C2.85710047,3.74634571 3.29059311,3.3125 3.8254081,3.3125 L4.74278085,3.3125 L4.74278085,2.00493118 C4.74278085,1.17554333 5.41689587,0.5 6.24254163,0.5 L8.95722103,0.5 C9.78743826,0.5 10.4569818,1.17068268 10.4569818,2.00493118 L10.4569818,3.3125 Z M0.547593584,16.085204 C0.515955897,15.9022611 0.5,15.7173516 0.5,15.53125 C0.5,12.8662792 3.71296563,10.8125 7.59988133,10.8125 C11.486797,10.8125 14.6997627,12.8662792 14.6997627,15.53125 C14.6997627,15.7173516 14.6838068,15.9022611 14.6521691,16.085204 L14.5804353,16.5 L0.619327347,16.5 L0.547593584,16.085204 Z"
        /> </g>
    </g>
  </symbol>
  <symbol viewBox="0 0 16 17" id="icon-trainer">
    <title>supplier</title>
    <desc>Created with Sketch.</desc>
    <!-- Generator: Sketch 46.1 (44463) - http://www.bohemiancoding.com/sketch -->
    <g id="trainer-Page-1" stroke="none" stroke-width="1" fill="none" fill-rule="evenodd">
      <g id="trainer-supplier">
        <use fill="#2ED000" fill-rule="evenodd" xlink:href="#trainer-path-1" />
        <use fill-opacity="0.9" fill="#FFFFFF" fill-rule="evenodd" xlink:href="#trainer-path-1" />
        <path stroke="#2ED000" stroke-width="1" d="M10.4569818,3.3125 L11.3743546,3.3125 C11.9079089,3.3125 12.3426622,3.75251898 12.3426622,4.28125 C12.3426622,4.81615429 11.9091696,5.25 11.3743546,5.25 L11.0034313,5.25 C11.0231654,5.39413809 11.0331619,5.54020962 11.0331619,5.6875 C11.0331619,7.521756 9.4914359,9 7.59988133,9 C5.70832676,9 4.16660074,7.521756 4.16660074,5.6875 C4.16660074,5.54020962 4.17659725,5.39413809 4.19633218,5.25 L3.8254081,5.25 C3.29185372,5.25 2.85710047,4.80998102 2.85710047,4.28125 C2.85710047,3.74634571 3.29059311,3.3125 3.8254081,3.3125 L4.74278085,3.3125 L4.74278085,2.00493118 C4.74278085,1.17554333 5.41689587,0.5 6.24254163,0.5 L8.95722103,0.5 C9.78743826,0.5 10.4569818,1.17068268 10.4569818,2.00493118 L10.4569818,3.3125 Z M0.547593584,16.085204 C0.515955897,15.9022611 0.5,15.7173516 0.5,15.53125 C0.5,12.8662792 3.71296563,10.8125 7.59988133,10.8125 C11.486797,10.8125 14.6997627,12.8662792 14.6997627,15.53125 C14.6997627,15.7173516 14.6838068,15.9022611 14.6521691,16.085204 L14.5804353,16.5 L0.619327347,16.5 L0.547593584,16.085204 Z"
        /> </g>
    </g>
  </symbol>
</svg>